<svg width="272" height="64" viewBox="0 0 272 64" fill="none" xmlns="http://www.w3.org/2000/svg">
<path fill-rule="evenodd" clip-rule="evenodd" d="M27.8787 0.262052C22.5719 0.944455 17.672 2.92682 13.5088 5.87954L25.4605 29.4045C26.2479 29.2872 27.0539 29.186 27.8787 29.102V0.262052ZM10.0491 8.7149C7.0642 11.5299 4.62047 14.9126 2.89047 18.6903L18.8313 30.8815C19.3745 30.7152 19.9319 30.5575 20.5038 30.4089C20.6702 30.3657 20.8376 30.3232 21.006 30.2816L10.0491 8.7149ZM1.29227 22.9679C0.451213 25.8321 0 28.8631 0 31.9995C0 36.0261 0.743678 39.8789 2.10117 43.4282C4.29913 39.6698 7.93387 35.6106 14.0457 32.7215L1.29227 22.9679ZM4.50592 48.3823C10.0913 57.7359 20.3143 64 32.0004 64C34.5167 64 36.9651 63.7096 39.3139 63.1604C36.3619 60.2146 34.4206 57.1973 33.5352 54.1812C32.33 50.0754 33.1494 46.1805 35.6435 42.9269C38.0772 39.7519 42.0109 37.2947 46.9257 35.6277C48.0785 35.2367 49.2934 34.8863 50.5667 34.5787C47.3254 34.1455 44.1706 33.8175 41.5235 33.587C40.2591 33.4769 39.1207 33.3899 38.1564 33.3248C37.361 33.2711 36.5816 33.2323 35.8181 33.2079C34.5338 33.1668 33.294 33.166 32.0974 33.2021C31.454 33.2214 30.8231 33.2515 30.2045 33.2916C29.7316 33.3223 29.2658 33.3589 28.8071 33.4011C27.7812 33.4956 26.7906 33.6183 25.8341 33.7666C25.4269 33.8298 25.0259 33.8975 24.631 33.9697C23.5789 34.1621 22.5699 34.3859 21.6024 34.6373C20.7309 34.8636 19.9032 35.1121 19.1168 35.3797C10.1565 38.4282 6.28817 44.07 4.50592 48.3823ZM44.0902 61.6375C54.1672 57.5226 61.6767 48.4179 63.5481 37.3937C57.5556 37.5144 52.424 38.376 48.3289 39.7649C43.9105 41.2636 40.8432 43.3246 39.1107 45.5847C37.4384 47.7662 36.9264 50.2233 37.727 52.9507C38.4807 55.5183 40.4506 58.4802 44.0902 61.6375ZM63.9946 32.6376C63.9988 32.4254 64.0008 32.2127 64.0008 31.9995C64.0008 27.9474 63.2477 24.0711 61.8737 20.5032L47.9554 29.85C53.2247 30.4634 59.2147 31.373 63.9946 32.6376ZM60.0021 16.4977C57.8102 12.5468 54.8065 9.10862 51.2161 6.40843L39.3935 29.0327C39.9362 29.0726 40.518 29.1181 41.1328 29.1693L60.0021 16.4977ZM47.5366 4.0169C43.0034 1.49459 37.7933 0.0419224 32.2474 0V28.8275C33.0105 28.808 33.788 28.8025 34.5799 28.8115L47.5366 4.0169Z" fill="url(#paint0_linear_601_8858)"/>
<path d="M94.273 26.288C93.009 26.288 91.849 26.064 90.793 25.616C89.737 25.152 88.817 24.512 88.033 23.696C87.265 22.864 86.665 21.888 86.233 20.768C85.801 19.648 85.585 18.416 85.585 17.072C85.585 15.728 85.801 14.496 86.233 13.376C86.665 12.256 87.265 11.28 88.033 10.448C88.817 9.616 89.737 8.976 90.793 8.528C91.849 8.064 93.009 7.832 94.273 7.832C95.489 7.832 96.577 8.048 97.537 8.48C98.513 8.912 99.329 9.472 99.985 10.16C100.657 10.832 101.137 11.544 101.425 12.296L99.625 13.088C99.177 12.048 98.489 11.216 97.561 10.592C96.649 9.952 95.553 9.632 94.273 9.632C92.961 9.632 91.793 9.944 90.769 10.568C89.745 11.192 88.945 12.064 88.369 13.184C87.793 14.288 87.505 15.584 87.505 17.072C87.505 18.544 87.793 19.84 88.369 20.96C88.945 22.08 89.745 22.952 90.769 23.576C91.793 24.184 92.961 24.488 94.273 24.488C95.553 24.488 96.649 24.176 97.561 23.552C98.489 22.928 99.177 22.096 99.625 21.056L101.425 21.848C101.137 22.584 100.657 23.296 99.985 23.984C99.329 24.656 98.513 25.208 97.537 25.64C96.577 26.072 95.489 26.288 94.273 26.288ZM107.821 26.288C107.005 26.288 106.277 26.136 105.637 25.832C104.997 25.512 104.493 25.08 104.125 24.536C103.757 23.992 103.573 23.368 103.573 22.664C103.573 21.672 103.901 20.808 104.557 20.072C105.213 19.336 106.253 18.848 107.677 18.608L112.333 17.84V17.168C112.333 16.4 112.053 15.776 111.493 15.296C110.933 14.816 110.205 14.576 109.309 14.576C108.525 14.576 107.837 14.776 107.245 15.176C106.653 15.56 106.213 16.064 105.925 16.688L104.293 15.8C104.533 15.256 104.909 14.76 105.421 14.312C105.949 13.864 106.549 13.512 107.221 13.256C107.893 12.984 108.589 12.848 109.309 12.848C110.253 12.848 111.085 13.032 111.805 13.4C112.541 13.768 113.109 14.28 113.509 14.936C113.925 15.576 114.133 16.32 114.133 17.168V26H112.333V24.152C111.917 24.776 111.309 25.288 110.509 25.688C109.709 26.088 108.813 26.288 107.821 26.288ZM105.493 22.592C105.493 23.168 105.717 23.656 106.165 24.056C106.629 24.456 107.221 24.656 107.941 24.656C108.821 24.656 109.589 24.472 110.245 24.104C110.901 23.72 111.413 23.208 111.781 22.568C112.149 21.928 112.333 21.216 112.333 20.432V19.472L108.109 20.168C107.181 20.328 106.509 20.624 106.093 21.056C105.693 21.488 105.493 22 105.493 22.592ZM117.571 26V13.136H119.371V14.72C119.755 14.128 120.259 13.672 120.883 13.352C121.523 13.016 122.211 12.848 122.947 12.848C123.827 12.848 124.635 13.072 125.371 13.52C126.107 13.968 126.675 14.56 127.075 15.296C127.459 14.496 128.011 13.888 128.731 13.472C129.467 13.056 130.267 12.848 131.131 12.848C131.995 12.848 132.787 13.056 133.507 13.472C134.243 13.888 134.827 14.464 135.259 15.2C135.707 15.92 135.931 16.736 135.931 17.648V26H134.131V18.344C134.131 17.176 133.827 16.272 133.219 15.632C132.611 14.976 131.843 14.648 130.915 14.648C129.987 14.648 129.211 14.976 128.587 15.632C127.963 16.288 127.651 17.192 127.651 18.344V26H125.851V18.344C125.851 17.176 125.547 16.272 124.939 15.632C124.331 14.976 123.563 14.648 122.635 14.648C121.707 14.648 120.931 14.976 120.307 15.632C119.683 16.288 119.371 17.192 119.371 18.344V26H117.571ZM139.104 10.76V8.12H140.904V10.76H139.104ZM139.104 26V13.136H140.904V26H139.104ZM144.324 26V13.136H146.124V14.72C146.508 14.144 147.02 13.688 147.66 13.352C148.3 13.016 149.02 12.848 149.82 12.848C150.732 12.848 151.548 13.056 152.268 13.472C153.004 13.888 153.58 14.464 153.996 15.2C154.428 15.92 154.644 16.736 154.644 17.648V26H152.844V18.344C152.844 17.176 152.532 16.272 151.908 15.632C151.3 14.976 150.5 14.648 149.508 14.648C148.532 14.648 147.724 14.976 147.084 15.632C146.444 16.288 146.124 17.192 146.124 18.344V26H144.324ZM163.842 26.288C162.626 26.288 161.522 26 160.53 25.424C159.538 24.832 158.746 24.032 158.154 23.024C157.578 22 157.29 20.84 157.29 19.544C157.29 18.264 157.578 17.12 158.154 16.112C158.73 15.104 159.506 14.312 160.482 13.736C161.474 13.144 162.594 12.848 163.842 12.848C165.09 12.848 166.202 13.136 167.178 13.712C168.17 14.288 168.946 15.08 169.506 16.088C170.082 17.096 170.37 18.248 170.37 19.544C170.37 20.856 170.074 22.024 169.482 23.048C168.89 24.056 168.098 24.848 167.106 25.424C166.13 26 165.042 26.288 163.842 26.288ZM163.842 24.488C164.706 24.488 165.482 24.272 166.17 23.84C166.874 23.408 167.426 22.816 167.826 22.064C168.242 21.312 168.45 20.472 168.45 19.544C168.45 18.616 168.242 17.784 167.826 17.048C167.426 16.312 166.874 15.728 166.17 15.296C165.482 14.864 164.706 14.648 163.842 14.648C162.978 14.648 162.194 14.864 161.49 15.296C160.802 15.728 160.25 16.312 159.834 17.048C159.418 17.784 159.21 18.616 159.21 19.544C159.21 20.472 159.418 21.312 159.834 22.064C160.25 22.816 160.802 23.408 161.49 23.84C162.194 24.272 162.978 24.488 163.842 24.488ZM177.359 26V8.12H179.039L188.879 22.232V8.12H190.799V26H189.119L179.279 11.792V26H177.359ZM200.359 26.288C199.159 26.288 198.071 26 197.095 25.424C196.135 24.832 195.375 24.024 194.815 23C194.255 21.976 193.975 20.816 193.975 19.52C193.975 18.224 194.247 17.08 194.791 16.088C195.335 15.08 196.071 14.288 196.999 13.712C197.943 13.136 198.999 12.848 200.167 12.848C201.095 12.848 201.919 13.024 202.639 13.376C203.375 13.712 203.999 14.176 204.511 14.768C205.023 15.344 205.415 16 205.687 16.736C205.959 17.456 206.095 18.2 206.095 18.968C206.095 19.128 206.087 19.312 206.071 19.52C206.055 19.712 206.031 19.912 205.999 20.12H195.871C195.903 21.048 196.127 21.848 196.543 22.52C196.975 23.176 197.527 23.688 198.199 24.056C198.871 24.424 199.591 24.608 200.359 24.608C201.303 24.608 202.095 24.384 202.735 23.936C203.375 23.488 203.895 22.928 204.295 22.256L205.831 23.072C205.575 23.648 205.183 24.184 204.655 24.68C204.127 25.16 203.495 25.552 202.759 25.856C202.039 26.144 201.239 26.288 200.359 26.288ZM200.167 14.528C199.463 14.528 198.807 14.688 198.199 15.008C197.591 15.328 197.079 15.784 196.663 16.376C196.263 16.952 196.015 17.64 195.919 18.44H204.151C204.135 17.672 203.943 17 203.575 16.424C203.223 15.832 202.743 15.368 202.135 15.032C201.543 14.696 200.887 14.528 200.167 14.528ZM213.924 26.144C212.772 26.144 211.884 25.808 211.26 25.136C210.636 24.464 210.324 23.504 210.324 22.256V14.936H207.948V13.136H208.548C209.092 13.136 209.524 12.96 209.844 12.608C210.164 12.24 210.324 11.784 210.324 11.24V10.16H212.124V13.136H214.956V14.936H212.124V22.256C212.124 22.896 212.276 23.424 212.58 23.84C212.884 24.256 213.436 24.464 214.236 24.464C214.364 24.464 214.516 24.456 214.692 24.44C214.868 24.424 215.02 24.408 215.148 24.392V26C214.956 26.048 214.74 26.08 214.5 26.096C214.26 26.128 214.068 26.144 213.924 26.144ZM220.877 26L216.461 13.136H218.501L221.789 23.24L224.861 13.136H226.661L229.757 23.24L233.045 13.136H235.061L230.645 26H228.845L225.773 15.824L222.677 26H220.877ZM242.696 26.288C241.48 26.288 240.376 26 239.384 25.424C238.392 24.832 237.6 24.032 237.008 23.024C236.432 22 236.144 20.84 236.144 19.544C236.144 18.264 236.432 17.12 237.008 16.112C237.584 15.104 238.36 14.312 239.336 13.736C240.328 13.144 241.448 12.848 242.696 12.848C243.944 12.848 245.056 13.136 246.032 13.712C247.024 14.288 247.8 15.08 248.36 16.088C248.936 17.096 249.224 18.248 249.224 19.544C249.224 20.856 248.928 22.024 248.336 23.048C247.744 24.056 246.952 24.848 245.96 25.424C244.984 26 243.896 26.288 242.696 26.288ZM242.696 24.488C243.56 24.488 244.336 24.272 245.024 23.84C245.728 23.408 246.28 22.816 246.68 22.064C247.096 21.312 247.304 20.472 247.304 19.544C247.304 18.616 247.096 17.784 246.68 17.048C246.28 16.312 245.728 15.728 245.024 15.296C244.336 14.864 243.56 14.648 242.696 14.648C241.832 14.648 241.048 14.864 240.344 15.296C239.656 15.728 239.104 16.312 238.688 17.048C238.272 17.784 238.064 18.616 238.064 19.544C238.064 20.472 238.272 21.312 238.688 22.064C239.104 22.816 239.656 23.408 240.344 23.84C241.048 24.272 241.832 24.488 242.696 24.488ZM252.134 26V13.136H253.934V14.528C254.27 14.032 254.718 13.648 255.278 13.376C255.854 13.104 256.534 12.968 257.318 12.968H258.134V14.768H257.006C256.078 14.768 255.334 15.056 254.774 15.632C254.214 16.208 253.934 17.024 253.934 18.08V26H252.134ZM259.979 26V7.832H261.779V19.664L268.235 13.136H270.563L265.523 18.296L271.019 26H268.859L264.227 19.616L261.779 22.136V26H259.979ZM85.849 58V40.12H97.489V42.64H88.681V48.016H96.529V50.536H88.681V58H85.849ZM105.249 58.288C104.001 58.288 102.857 57.992 101.817 57.4C100.793 56.808 99.977 56 99.369 54.976C98.761 53.952 98.457 52.792 98.457 51.496C98.457 50.184 98.753 49.024 99.345 48.016C99.953 46.992 100.769 46.192 101.793 45.616C102.833 45.024 103.985 44.728 105.249 44.728C106.513 44.728 107.657 45.024 108.681 45.616C109.705 46.192 110.513 46.992 111.105 48.016C111.713 49.024 112.017 50.184 112.017 51.496C112.017 52.808 111.713 53.976 111.105 55C110.497 56.024 109.681 56.832 108.657 57.424C107.633 58 106.497 58.288 105.249 58.288ZM105.249 55.768C106.001 55.768 106.673 55.584 107.265 55.216C107.873 54.848 108.345 54.344 108.681 53.704C109.033 53.048 109.209 52.312 109.209 51.496C109.209 50.68 109.033 49.952 108.681 49.312C108.345 48.672 107.873 48.168 107.265 47.8C106.673 47.432 106.001 47.248 105.249 47.248C104.497 47.248 103.817 47.432 103.209 47.8C102.617 48.168 102.145 48.672 101.793 49.312C101.457 49.952 101.289 50.68 101.289 51.496C101.289 52.312 101.457 53.048 101.793 53.704C102.145 54.344 102.617 54.848 103.209 55.216C103.817 55.584 104.497 55.768 105.249 55.768ZM119.033 58.288C118.057 58.288 117.201 58.072 116.465 57.64C115.729 57.192 115.153 56.576 114.737 55.792C114.337 54.992 114.137 54.072 114.137 53.032V45.016H116.849V52.792C116.849 53.688 117.113 54.408 117.641 54.952C118.185 55.496 118.873 55.768 119.705 55.768C120.553 55.768 121.249 55.488 121.793 54.928C122.337 54.368 122.609 53.616 122.609 52.672V45.016H125.297V58H122.729V56.392C122.361 57 121.857 57.472 121.217 57.808C120.577 58.128 119.849 58.288 119.033 58.288ZM128.199 58V45.016H130.791V46.6C131.159 45.992 131.663 45.528 132.303 45.208C132.943 44.888 133.663 44.728 134.463 44.728C135.407 44.728 136.247 44.936 136.983 45.352C137.719 45.768 138.295 46.344 138.711 47.08C139.143 47.8 139.359 48.64 139.359 49.6V58H136.671V50.344C136.671 49.384 136.399 48.632 135.855 48.088C135.327 47.528 134.639 47.248 133.791 47.248C132.959 47.248 132.271 47.528 131.727 48.088C131.183 48.632 130.911 49.384 130.911 50.344V58H128.199ZM147.998 58.288C146.75 58.288 145.63 57.992 144.638 57.4C143.662 56.792 142.886 55.976 142.31 54.952C141.75 53.928 141.47 52.776 141.47 51.496C141.47 50.216 141.75 49.064 142.31 48.04C142.886 47.016 143.662 46.208 144.638 45.616C145.63 45.024 146.742 44.728 147.974 44.728C148.87 44.728 149.678 44.888 150.398 45.208C151.134 45.528 151.742 45.968 152.222 46.528V39.832H154.91V58H152.342V56.32C151.862 56.96 151.238 57.448 150.47 57.784C149.718 58.12 148.894 58.288 147.998 58.288ZM148.262 55.768C149.014 55.768 149.686 55.584 150.278 55.216C150.886 54.848 151.358 54.344 151.694 53.704C152.046 53.048 152.222 52.312 152.222 51.496C152.222 50.68 152.046 49.952 151.694 49.312C151.358 48.672 150.886 48.168 150.278 47.8C149.686 47.432 149.014 47.248 148.262 47.248C147.51 47.248 146.83 47.432 146.222 47.8C145.63 48.168 145.158 48.672 144.806 49.312C144.47 49.952 144.302 50.68 144.302 51.496C144.302 52.312 144.47 53.048 144.806 53.704C145.142 54.344 145.606 54.848 146.198 55.216C146.806 55.584 147.494 55.768 148.262 55.768ZM161.7 58.288C160.388 58.288 159.324 57.952 158.508 57.28C157.692 56.592 157.284 55.688 157.284 54.568C157.284 53.528 157.636 52.648 158.34 51.928C159.06 51.192 160.172 50.696 161.676 50.44L165.804 49.768V49.264C165.804 48.624 165.564 48.104 165.084 47.704C164.62 47.288 163.996 47.08 163.212 47.08C162.492 47.08 161.86 47.264 161.316 47.632C160.788 48 160.396 48.488 160.14 49.096L157.884 47.968C158.14 47.328 158.532 46.768 159.06 46.288C159.604 45.808 160.236 45.432 160.956 45.16C161.692 44.872 162.468 44.728 163.284 44.728C164.308 44.728 165.212 44.92 165.996 45.304C166.78 45.688 167.396 46.224 167.844 46.912C168.292 47.584 168.516 48.368 168.516 49.264V58H165.924V56.488C165.444 57.064 164.844 57.512 164.124 57.832C163.404 58.136 162.596 58.288 161.7 58.288ZM160.116 54.472C160.116 54.968 160.3 55.376 160.668 55.696C161.052 56 161.54 56.152 162.132 56.152C162.868 56.152 163.508 56 164.052 55.696C164.596 55.376 165.02 54.944 165.324 54.4C165.644 53.856 165.804 53.256 165.804 52.6V51.904L162.204 52.528C161.484 52.64 160.956 52.864 160.62 53.2C160.284 53.536 160.116 53.96 160.116 54.472ZM176.804 58.144C175.444 58.144 174.388 57.76 173.636 56.992C172.884 56.224 172.508 55.144 172.508 53.752V47.464H170.228V45.016H170.588C171.196 45.016 171.668 44.84 172.004 44.488C172.34 44.136 172.508 43.656 172.508 43.048V42.04H175.22V45.016H178.172V47.464H175.22V53.632C175.22 54.288 175.38 54.808 175.7 55.192C176.036 55.56 176.596 55.744 177.38 55.744C177.668 55.744 177.964 55.72 178.268 55.672V58C178.06 58.032 177.82 58.064 177.548 58.096C177.276 58.128 177.028 58.144 176.804 58.144ZM180.651 43.24V40.12H183.363V43.24H180.651ZM180.651 58V45.016H183.363V58H180.651ZM192.534 58.288C191.286 58.288 190.142 57.992 189.102 57.4C188.078 56.808 187.262 56 186.654 54.976C186.046 53.952 185.742 52.792 185.742 51.496C185.742 50.184 186.038 49.024 186.63 48.016C187.238 46.992 188.054 46.192 189.078 45.616C190.118 45.024 191.27 44.728 192.534 44.728C193.798 44.728 194.942 45.024 195.966 45.616C196.99 46.192 197.798 46.992 198.39 48.016C198.998 49.024 199.302 50.184 199.302 51.496C199.302 52.808 198.998 53.976 198.39 55C197.782 56.024 196.966 56.832 195.942 57.424C194.918 58 193.782 58.288 192.534 58.288ZM192.534 55.768C193.286 55.768 193.958 55.584 194.55 55.216C195.158 54.848 195.63 54.344 195.966 53.704C196.318 53.048 196.494 52.312 196.494 51.496C196.494 50.68 196.318 49.952 195.966 49.312C195.63 48.672 195.158 48.168 194.55 47.8C193.958 47.432 193.286 47.248 192.534 47.248C191.782 47.248 191.102 47.432 190.494 47.8C189.902 48.168 189.43 48.672 189.078 49.312C188.742 49.952 188.574 50.68 188.574 51.496C188.574 52.312 188.742 53.048 189.078 53.704C189.43 54.344 189.902 54.848 190.494 55.216C191.102 55.584 191.782 55.768 192.534 55.768ZM201.686 58V45.016H204.278V46.6C204.646 45.992 205.15 45.528 205.79 45.208C206.43 44.888 207.15 44.728 207.95 44.728C208.894 44.728 209.734 44.936 210.47 45.352C211.206 45.768 211.782 46.344 212.198 47.08C212.63 47.8 212.846 48.64 212.846 49.6V58H210.158V50.344C210.158 49.384 209.886 48.632 209.342 48.088C208.814 47.528 208.126 47.248 207.278 47.248C206.446 47.248 205.758 47.528 205.214 48.088C204.67 48.632 204.398 49.384 204.398 50.344V58H201.686Z" fill="black"/>
<defs>
<linearGradient id="paint0_linear_601_8858" x1="0" y1="32" x2="64.0008" y2="32" gradientUnits="userSpaceOnUse">
<stop stop-color="#0085FF"/>
<stop offset="1" stop-color="#B440FC"/>
</linearGradient>
</defs>
</svg>
