<svg width="390" height="48" viewBox="0 0 390 48" fill="none" xmlns="http://www.w3.org/2000/svg">
<path fill-rule="evenodd" clip-rule="evenodd" d="M21.4079 0.196756C17.4278 0.708685 13.7529 2.1956 10.6305 4.41027L19.5943 22.0539C20.1848 21.9659 20.7893 21.89 21.4079 21.827V0.196756ZM8.03575 6.53691C5.79715 8.64824 3.96444 11.1853 2.66704 14.0186L14.6223 23.1617C15.0298 23.037 15.4478 22.9187 15.8767 22.8072C16.0015 22.7748 16.1271 22.743 16.2533 22.7117L8.03575 6.53691ZM1.46848 17.2268C0.837839 19.3748 0.499512 21.6478 0.499512 23.9998C0.499512 27.0195 1.0572 29.909 2.07521 32.5708C3.72374 29.7522 6.44972 26.7083 11.0331 24.5417L1.46848 17.2268ZM3.87864 36.2863C8.06765 43.3018 15.7351 48.0001 24.5 48.0001C26.3868 48.0001 28.2228 47.7824 29.9842 47.3707C27.7703 45.1613 26.3143 42.8985 25.6503 40.6364C24.7464 37.5571 25.361 34.6359 27.2315 32.1957C29.0569 29.8145 32.0071 27.9716 35.6932 26.7214C36.5579 26.4281 37.469 26.1653 38.424 25.9346C35.9931 25.6096 33.6269 25.3637 31.6416 25.1908C30.6933 25.1083 29.8395 25.043 29.1162 24.9941C28.5197 24.9538 27.9352 24.9248 27.3625 24.9065C26.3993 24.8756 25.4694 24.875 24.572 24.9021C24.0894 24.9166 23.6162 24.9392 23.1523 24.9693C22.7976 24.9923 22.4483 25.0197 22.1042 25.0514C21.3348 25.1222 20.5918 25.2143 19.8745 25.3255C19.5691 25.3729 19.2683 25.4237 18.9721 25.4778C18.1831 25.6221 17.4263 25.79 16.7006 25.9785C16.0471 26.1483 15.4262 26.3347 14.8365 26.5353C8.11691 28.8215 5.21552 33.0522 3.87864 36.2863ZM33.5665 46.2286C41.1246 43.1427 46.7571 36.314 48.1608 28.0458C43.6661 28.1363 39.8171 28.7825 36.7457 29.8243C33.4319 30.9482 31.1313 32.494 29.832 34.1891C28.5778 35.8252 28.1937 37.668 28.7942 39.7135C29.3595 41.6393 30.8368 43.8607 33.5665 46.2286ZM48.4957 24.479C48.4989 24.3196 48.5004 24.1599 48.5004 23.9998C48.5004 20.9606 47.9355 18.0534 46.905 15.3774L36.4655 22.388C40.4178 22.8481 44.9107 23.5304 48.4957 24.479ZM45.5013 12.3733C43.8573 9.41005 41.6044 6.83134 38.9115 4.80617L30.0441 21.775C30.4511 21.805 30.8874 21.8391 31.3486 21.8775L45.5013 12.3733ZM36.1518 3.01257C32.7517 1.12087 28.844 0.0314348 24.6845 0.000116929V21.6212C25.2568 21.6066 25.8399 21.6024 26.4339 21.6091L36.1518 3.01257Z" fill="#020617"/>
<path d="M78.7725 34.288C77.5085 34.288 76.3485 34.064 75.2925 33.616C74.2365 33.152 73.3165 32.512 72.5325 31.696C71.7645 30.864 71.1645 29.888 70.7325 28.768C70.3005 27.648 70.0845 26.416 70.0845 25.072C70.0845 23.728 70.3005 22.496 70.7325 21.376C71.1645 20.256 71.7645 19.28 72.5325 18.448C73.3165 17.616 74.2365 16.976 75.2925 16.528C76.3485 16.064 77.5085 15.832 78.7725 15.832C79.9885 15.832 81.0765 16.048 82.0365 16.48C83.0125 16.912 83.8285 17.472 84.4845 18.16C85.1565 18.832 85.6365 19.544 85.9245 20.296L84.1245 21.088C83.6765 20.048 82.9885 19.216 82.0605 18.592C81.1485 17.952 80.0525 17.632 78.7725 17.632C77.4605 17.632 76.2925 17.944 75.2685 18.568C74.2445 19.192 73.4445 20.064 72.8685 21.184C72.2925 22.288 72.0045 23.584 72.0045 25.072C72.0045 26.544 72.2925 27.84 72.8685 28.96C73.4445 30.08 74.2445 30.952 75.2685 31.576C76.2925 32.184 77.4605 32.488 78.7725 32.488C80.0525 32.488 81.1485 32.176 82.0605 31.552C82.9885 30.928 83.6765 30.096 84.1245 29.056L85.9245 29.848C85.6365 30.584 85.1565 31.296 84.4845 31.984C83.8285 32.656 83.0125 33.208 82.0365 33.64C81.0765 34.072 79.9885 34.288 78.7725 34.288ZM92.3201 34.288C91.5041 34.288 90.7761 34.136 90.1361 33.832C89.4961 33.512 88.9921 33.08 88.6241 32.536C88.2561 31.992 88.0721 31.368 88.0721 30.664C88.0721 29.672 88.4001 28.808 89.0561 28.072C89.7121 27.336 90.7521 26.848 92.1761 26.608L96.8321 25.84V25.168C96.8321 24.4 96.5521 23.776 95.9921 23.296C95.4321 22.816 94.7041 22.576 93.8081 22.576C93.0241 22.576 92.3361 22.776 91.7441 23.176C91.1521 23.56 90.7121 24.064 90.4241 24.688L88.7921 23.8C89.0321 23.256 89.4081 22.76 89.9201 22.312C90.4481 21.864 91.0481 21.512 91.7201 21.256C92.3921 20.984 93.0881 20.848 93.8081 20.848C94.7521 20.848 95.5841 21.032 96.3041 21.4C97.0401 21.768 97.6081 22.28 98.0081 22.936C98.4241 23.576 98.6321 24.32 98.6321 25.168V34H96.8321V32.152C96.4161 32.776 95.8081 33.288 95.0081 33.688C94.2081 34.088 93.3121 34.288 92.3201 34.288ZM89.9921 30.592C89.9921 31.168 90.2161 31.656 90.6641 32.056C91.1281 32.456 91.7201 32.656 92.4401 32.656C93.3201 32.656 94.0881 32.472 94.7441 32.104C95.4001 31.72 95.9121 31.208 96.2801 30.568C96.6481 29.928 96.8321 29.216 96.8321 28.432V27.472L92.6081 28.168C91.6801 28.328 91.0081 28.624 90.5921 29.056C90.1921 29.488 89.9921 30 89.9921 30.592ZM102.07 34V21.136H103.87V22.72C104.254 22.128 104.758 21.672 105.382 21.352C106.022 21.016 106.71 20.848 107.446 20.848C108.326 20.848 109.134 21.072 109.87 21.52C110.606 21.968 111.174 22.56 111.574 23.296C111.958 22.496 112.51 21.888 113.23 21.472C113.966 21.056 114.766 20.848 115.63 20.848C116.494 20.848 117.286 21.056 118.006 21.472C118.742 21.888 119.326 22.464 119.758 23.2C120.206 23.92 120.43 24.736 120.43 25.648V34H118.63V26.344C118.63 25.176 118.326 24.272 117.718 23.632C117.11 22.976 116.342 22.648 115.414 22.648C114.486 22.648 113.71 22.976 113.086 23.632C112.462 24.288 112.15 25.192 112.15 26.344V34H110.35V26.344C110.35 25.176 110.046 24.272 109.438 23.632C108.83 22.976 108.062 22.648 107.134 22.648C106.206 22.648 105.43 22.976 104.806 23.632C104.182 24.288 103.87 25.192 103.87 26.344V34H102.07ZM123.603 18.76V16.12H125.403V18.76H123.603ZM123.603 34V21.136H125.403V34H123.603ZM128.824 34V21.136H130.624V22.72C131.008 22.144 131.52 21.688 132.16 21.352C132.8 21.016 133.52 20.848 134.32 20.848C135.232 20.848 136.048 21.056 136.768 21.472C137.504 21.888 138.08 22.464 138.496 23.2C138.928 23.92 139.144 24.736 139.144 25.648V34H137.344V26.344C137.344 25.176 137.032 24.272 136.408 23.632C135.8 22.976 135 22.648 134.008 22.648C133.032 22.648 132.224 22.976 131.584 23.632C130.944 24.288 130.624 25.192 130.624 26.344V34H128.824ZM148.342 34.288C147.126 34.288 146.022 34 145.03 33.424C144.038 32.832 143.246 32.032 142.654 31.024C142.078 30 141.79 28.84 141.79 27.544C141.79 26.264 142.078 25.12 142.654 24.112C143.23 23.104 144.006 22.312 144.982 21.736C145.974 21.144 147.094 20.848 148.342 20.848C149.59 20.848 150.702 21.136 151.678 21.712C152.67 22.288 153.446 23.08 154.006 24.088C154.582 25.096 154.87 26.248 154.87 27.544C154.87 28.856 154.574 30.024 153.982 31.048C153.39 32.056 152.598 32.848 151.606 33.424C150.63 34 149.542 34.288 148.342 34.288ZM148.342 32.488C149.206 32.488 149.982 32.272 150.67 31.84C151.374 31.408 151.926 30.816 152.326 30.064C152.742 29.312 152.95 28.472 152.95 27.544C152.95 26.616 152.742 25.784 152.326 25.048C151.926 24.312 151.374 23.728 150.67 23.296C149.982 22.864 149.206 22.648 148.342 22.648C147.478 22.648 146.694 22.864 145.99 23.296C145.302 23.728 144.75 24.312 144.334 25.048C143.918 25.784 143.71 26.616 143.71 27.544C143.71 28.472 143.918 29.312 144.334 30.064C144.75 30.816 145.302 31.408 145.99 31.84C146.694 32.272 147.478 32.488 148.342 32.488ZM161.858 34V16.12H163.538L173.378 30.232V16.12H175.298V34H173.618L163.778 19.792V34H161.858ZM184.858 34.288C183.658 34.288 182.57 34 181.594 33.424C180.634 32.832 179.874 32.024 179.314 31C178.754 29.976 178.474 28.816 178.474 27.52C178.474 26.224 178.746 25.08 179.29 24.088C179.834 23.08 180.57 22.288 181.498 21.712C182.442 21.136 183.498 20.848 184.666 20.848C185.594 20.848 186.418 21.024 187.138 21.376C187.874 21.712 188.498 22.176 189.01 22.768C189.522 23.344 189.914 24 190.186 24.736C190.458 25.456 190.594 26.2 190.594 26.968C190.594 27.128 190.586 27.312 190.57 27.52C190.554 27.712 190.53 27.912 190.498 28.12H180.37C180.402 29.048 180.626 29.848 181.042 30.52C181.474 31.176 182.026 31.688 182.698 32.056C183.37 32.424 184.09 32.608 184.858 32.608C185.802 32.608 186.594 32.384 187.234 31.936C187.874 31.488 188.394 30.928 188.794 30.256L190.33 31.072C190.074 31.648 189.682 32.184 189.154 32.68C188.626 33.16 187.994 33.552 187.258 33.856C186.538 34.144 185.738 34.288 184.858 34.288ZM184.666 22.528C183.962 22.528 183.306 22.688 182.698 23.008C182.09 23.328 181.578 23.784 181.162 24.376C180.762 24.952 180.514 25.64 180.418 26.44H188.65C188.634 25.672 188.442 25 188.074 24.424C187.722 23.832 187.242 23.368 186.634 23.032C186.042 22.696 185.386 22.528 184.666 22.528ZM198.424 34.144C197.272 34.144 196.384 33.808 195.76 33.136C195.136 32.464 194.824 31.504 194.824 30.256V22.936H192.448V21.136H193.048C193.592 21.136 194.024 20.96 194.344 20.608C194.664 20.24 194.824 19.784 194.824 19.24V18.16H196.624V21.136H199.456V22.936H196.624V30.256C196.624 30.896 196.776 31.424 197.08 31.84C197.384 32.256 197.936 32.464 198.736 32.464C198.864 32.464 199.016 32.456 199.192 32.44C199.368 32.424 199.52 32.408 199.648 32.392V34C199.456 34.048 199.24 34.08 199 34.096C198.76 34.128 198.568 34.144 198.424 34.144ZM205.376 34L200.96 21.136H203L206.288 31.24L209.36 21.136H211.16L214.256 31.24L217.544 21.136H219.56L215.144 34H213.344L210.272 23.824L207.176 34H205.376ZM227.195 34.288C225.979 34.288 224.875 34 223.883 33.424C222.891 32.832 222.099 32.032 221.507 31.024C220.931 30 220.643 28.84 220.643 27.544C220.643 26.264 220.931 25.12 221.507 24.112C222.083 23.104 222.859 22.312 223.835 21.736C224.827 21.144 225.947 20.848 227.195 20.848C228.443 20.848 229.555 21.136 230.531 21.712C231.523 22.288 232.299 23.08 232.859 24.088C233.435 25.096 233.723 26.248 233.723 27.544C233.723 28.856 233.427 30.024 232.835 31.048C232.243 32.056 231.451 32.848 230.459 33.424C229.483 34 228.395 34.288 227.195 34.288ZM227.195 32.488C228.059 32.488 228.835 32.272 229.523 31.84C230.227 31.408 230.779 30.816 231.179 30.064C231.595 29.312 231.803 28.472 231.803 27.544C231.803 26.616 231.595 25.784 231.179 25.048C230.779 24.312 230.227 23.728 229.523 23.296C228.835 22.864 228.059 22.648 227.195 22.648C226.331 22.648 225.547 22.864 224.843 23.296C224.155 23.728 223.603 24.312 223.187 25.048C222.771 25.784 222.563 26.616 222.563 27.544C222.563 28.472 222.771 29.312 223.187 30.064C223.603 30.816 224.155 31.408 224.843 31.84C225.547 32.272 226.331 32.488 227.195 32.488ZM236.634 34V21.136H238.434V22.528C238.77 22.032 239.218 21.648 239.778 21.376C240.354 21.104 241.034 20.968 241.818 20.968H242.634V22.768H241.506C240.578 22.768 239.834 23.056 239.274 23.632C238.714 24.208 238.434 25.024 238.434 26.08V34H236.634ZM244.479 34V15.832H246.279V27.664L252.735 21.136H255.063L250.023 26.296L255.519 34H253.359L248.727 27.616L246.279 30.136V34H244.479ZM261.178 34V16.12H272.818V18.64H264.01V24.016H271.858V26.536H264.01V34H261.178ZM280.578 34.288C279.33 34.288 278.186 33.992 277.146 33.4C276.122 32.808 275.306 32 274.698 30.976C274.09 29.952 273.786 28.792 273.786 27.496C273.786 26.184 274.082 25.024 274.674 24.016C275.282 22.992 276.098 22.192 277.122 21.616C278.162 21.024 279.314 20.728 280.578 20.728C281.842 20.728 282.986 21.024 284.01 21.616C285.034 22.192 285.842 22.992 286.434 24.016C287.042 25.024 287.346 26.184 287.346 27.496C287.346 28.808 287.042 29.976 286.434 31C285.826 32.024 285.01 32.832 283.986 33.424C282.962 34 281.826 34.288 280.578 34.288ZM280.578 31.768C281.33 31.768 282.002 31.584 282.594 31.216C283.202 30.848 283.674 30.344 284.01 29.704C284.362 29.048 284.538 28.312 284.538 27.496C284.538 26.68 284.362 25.952 284.01 25.312C283.674 24.672 283.202 24.168 282.594 23.8C282.002 23.432 281.33 23.248 280.578 23.248C279.826 23.248 279.146 23.432 278.538 23.8C277.946 24.168 277.474 24.672 277.122 25.312C276.786 25.952 276.618 26.68 276.618 27.496C276.618 28.312 276.786 29.048 277.122 29.704C277.474 30.344 277.946 30.848 278.538 31.216C279.146 31.584 279.826 31.768 280.578 31.768ZM294.361 34.288C293.385 34.288 292.529 34.072 291.793 33.64C291.057 33.192 290.481 32.576 290.065 31.792C289.665 30.992 289.465 30.072 289.465 29.032V21.016H292.177V28.792C292.177 29.688 292.441 30.408 292.969 30.952C293.513 31.496 294.201 31.768 295.033 31.768C295.881 31.768 296.577 31.488 297.121 30.928C297.665 30.368 297.937 29.616 297.937 28.672V21.016H300.625V34H298.057V32.392C297.689 33 297.185 33.472 296.545 33.808C295.905 34.128 295.177 34.288 294.361 34.288ZM303.528 34V21.016H306.12V22.6C306.488 21.992 306.992 21.528 307.632 21.208C308.272 20.888 308.992 20.728 309.792 20.728C310.736 20.728 311.576 20.936 312.312 21.352C313.048 21.768 313.624 22.344 314.04 23.08C314.472 23.8 314.688 24.64 314.688 25.6V34H312V26.344C312 25.384 311.728 24.632 311.184 24.088C310.656 23.528 309.968 23.248 309.12 23.248C308.288 23.248 307.6 23.528 307.056 24.088C306.512 24.632 306.24 25.384 306.24 26.344V34H303.528ZM323.326 34.288C322.078 34.288 320.958 33.992 319.966 33.4C318.99 32.792 318.214 31.976 317.638 30.952C317.078 29.928 316.798 28.776 316.798 27.496C316.798 26.216 317.078 25.064 317.638 24.04C318.214 23.016 318.99 22.208 319.966 21.616C320.958 21.024 322.07 20.728 323.302 20.728C324.198 20.728 325.006 20.888 325.726 21.208C326.462 21.528 327.07 21.968 327.55 22.528V15.832H330.238V34H327.67V32.32C327.19 32.96 326.566 33.448 325.798 33.784C325.046 34.12 324.222 34.288 323.326 34.288ZM323.59 31.768C324.342 31.768 325.014 31.584 325.606 31.216C326.214 30.848 326.686 30.344 327.022 29.704C327.374 29.048 327.55 28.312 327.55 27.496C327.55 26.68 327.374 25.952 327.022 25.312C326.686 24.672 326.214 24.168 325.606 23.8C325.014 23.432 324.342 23.248 323.59 23.248C322.838 23.248 322.158 23.432 321.55 23.8C320.958 24.168 320.486 24.672 320.134 25.312C319.798 25.952 319.63 26.68 319.63 27.496C319.63 28.312 319.798 29.048 320.134 29.704C320.47 30.344 320.934 30.848 321.526 31.216C322.134 31.584 322.822 31.768 323.59 31.768ZM337.028 34.288C335.716 34.288 334.652 33.952 333.836 33.28C333.02 32.592 332.612 31.688 332.612 30.568C332.612 29.528 332.964 28.648 333.668 27.928C334.388 27.192 335.5 26.696 337.004 26.44L341.132 25.768V25.264C341.132 24.624 340.892 24.104 340.412 23.704C339.948 23.288 339.324 23.08 338.54 23.08C337.82 23.08 337.188 23.264 336.644 23.632C336.116 24 335.724 24.488 335.468 25.096L333.212 23.968C333.468 23.328 333.86 22.768 334.388 22.288C334.932 21.808 335.564 21.432 336.284 21.16C337.02 20.872 337.796 20.728 338.612 20.728C339.636 20.728 340.54 20.92 341.324 21.304C342.108 21.688 342.724 22.224 343.172 22.912C343.62 23.584 343.844 24.368 343.844 25.264V34H341.252V32.488C340.772 33.064 340.172 33.512 339.452 33.832C338.732 34.136 337.924 34.288 337.028 34.288ZM335.444 30.472C335.444 30.968 335.628 31.376 335.996 31.696C336.38 32 336.868 32.152 337.46 32.152C338.196 32.152 338.836 32 339.38 31.696C339.924 31.376 340.348 30.944 340.652 30.4C340.972 29.856 341.132 29.256 341.132 28.6V27.904L337.532 28.528C336.812 28.64 336.284 28.864 335.948 29.2C335.612 29.536 335.444 29.96 335.444 30.472ZM352.133 34.144C350.773 34.144 349.717 33.76 348.965 32.992C348.213 32.224 347.837 31.144 347.837 29.752V23.464H345.557V21.016H345.917C346.525 21.016 346.997 20.84 347.333 20.488C347.669 20.136 347.837 19.656 347.837 19.048V18.04H350.549V21.016H353.501V23.464H350.549V29.632C350.549 30.288 350.709 30.808 351.029 31.192C351.365 31.56 351.925 31.744 352.709 31.744C352.997 31.744 353.293 31.72 353.597 31.672V34C353.389 34.032 353.149 34.064 352.877 34.096C352.605 34.128 352.357 34.144 352.133 34.144ZM355.98 19.24V16.12H358.692V19.24H355.98ZM355.98 34V21.016H358.692V34H355.98ZM367.862 34.288C366.614 34.288 365.47 33.992 364.43 33.4C363.406 32.808 362.59 32 361.982 30.976C361.374 29.952 361.07 28.792 361.07 27.496C361.07 26.184 361.366 25.024 361.958 24.016C362.566 22.992 363.382 22.192 364.406 21.616C365.446 21.024 366.598 20.728 367.862 20.728C369.126 20.728 370.27 21.024 371.294 21.616C372.318 22.192 373.126 22.992 373.718 24.016C374.326 25.024 374.63 26.184 374.63 27.496C374.63 28.808 374.326 29.976 373.718 31C373.11 32.024 372.294 32.832 371.27 33.424C370.246 34 369.11 34.288 367.862 34.288ZM367.862 31.768C368.614 31.768 369.286 31.584 369.878 31.216C370.486 30.848 370.958 30.344 371.294 29.704C371.646 29.048 371.822 28.312 371.822 27.496C371.822 26.68 371.646 25.952 371.294 25.312C370.958 24.672 370.486 24.168 369.878 23.8C369.286 23.432 368.614 23.248 367.862 23.248C367.11 23.248 366.43 23.432 365.822 23.8C365.23 24.168 364.758 24.672 364.406 25.312C364.07 25.952 363.902 26.68 363.902 27.496C363.902 28.312 364.07 29.048 364.406 29.704C364.758 30.344 365.23 30.848 365.822 31.216C366.43 31.584 367.11 31.768 367.862 31.768ZM377.014 34V21.016H379.606V22.6C379.974 21.992 380.478 21.528 381.118 21.208C381.758 20.888 382.478 20.728 383.278 20.728C384.222 20.728 385.062 20.936 385.798 21.352C386.534 21.768 387.11 22.344 387.526 23.08C387.958 23.8 388.174 24.64 388.174 25.6V34H385.486V26.344C385.486 25.384 385.214 24.632 384.67 24.088C384.142 23.528 383.454 23.248 382.606 23.248C381.774 23.248 381.086 23.528 380.542 24.088C379.998 24.632 379.726 25.384 379.726 26.344V34H377.014Z" fill="#020617"/>
</svg>
