<svg width="176" height="176" viewBox="0 0 176 176" fill="none" xmlns="http://www.w3.org/2000/svg">
<rect width="176" height="176" rx="88" fill="white"/>
<mask id="path-2-inside-1_602_9090" fill="white">
<path fill-rule="evenodd" clip-rule="evenodd" d="M79.755 24.5241C69.1417 25.8892 59.3423 29.8541 51.0161 35.7596L74.9188 82.8085C76.4935 82.5738 78.1054 82.3714 79.755 82.2034V24.5241ZM44.097 41.4305C38.1275 47.0606 33.2403 53.8258 29.7806 61.381L61.6604 85.7625C62.7469 85.4299 63.8617 85.1144 65.0055 84.8173C65.3382 84.7308 65.673 84.6459 66.0097 84.5625L44.097 41.4305ZM26.5843 69.9362C24.9023 75.6645 24 81.7263 24 87.9989C24 96.0512 25.4871 103.756 28.2016 110.854C32.5975 103.338 39.8667 95.2202 52.0895 89.4425L26.5843 69.9362ZM33.0107 120.763C44.1811 139.471 64.6274 152 88 152C93.032 152 97.9284 151.419 102.626 150.321C96.7214 144.429 92.8387 138.394 91.0678 132.362C88.6574 124.15 90.2963 116.36 95.2843 109.853C100.152 103.503 108.019 98.5889 117.848 95.2549C120.154 94.4729 122.584 93.7721 125.13 93.1569C118.648 92.2904 112.338 91.6344 107.044 91.1735C104.516 90.9533 102.239 90.7793 100.31 90.649C98.7193 90.5415 97.1607 90.4641 95.6335 90.4152C93.0649 90.3329 90.5855 90.3314 88.1924 90.4035C86.9056 90.4423 85.6438 90.5024 84.4065 90.5826C83.4607 90.644 82.5292 90.7172 81.6118 90.8016C79.56 90.9905 77.5788 91.236 75.6658 91.5327C74.8515 91.6589 74.0495 91.7945 73.2597 91.9389C71.1555 92.3236 69.1375 92.7712 67.2025 93.2739C65.4597 93.7267 63.8042 94.2237 62.2314 94.7588C44.3121 100.856 36.5754 112.138 33.0107 120.763ZM112.178 147.275C132.333 139.046 147.352 120.836 151.095 98.7868C139.109 99.0281 128.845 100.751 120.655 103.529C111.818 106.527 105.684 110.649 102.219 115.169C98.8742 119.532 97.8501 124.446 99.4514 129.901C100.959 135.036 104.899 140.96 112.178 147.275ZM151.988 89.2752C151.996 88.8507 152 88.4253 152 87.9989C152 79.8941 150.494 72.1412 147.745 65.005L119.908 83.6994C130.447 84.9263 142.428 86.7456 151.988 89.2752ZM144.002 56.994C139.618 49.0923 133.61 42.2159 126.43 36.8157L102.784 82.0648C103.87 82.1447 105.033 82.2357 106.263 82.338L144.002 56.994ZM119.071 32.0328C110.004 26.9884 99.5839 24.0833 88.4923 23.9998V81.6544C90.0186 81.6155 91.5734 81.6044 93.1572 81.6223L119.071 32.0328Z"/>
</mask>
<path d="M51.0161 35.7596L49.8591 34.1283L48.4513 35.1268L49.233 36.6655L51.0161 35.7596ZM79.755 24.5241H81.755V22.2504L79.4999 22.5405L79.755 24.5241ZM74.9188 82.8085L73.1357 83.7144L73.7883 84.999L75.2135 84.7866L74.9188 82.8085ZM79.755 82.2034L79.9577 84.1931L81.755 84.01V82.2034H79.755ZM29.7806 61.381L27.9622 60.5483L27.2975 61.9998L28.5656 62.9697L29.7806 61.381ZM44.097 41.4305L45.88 40.5247L44.6693 38.1415L42.7247 39.9756L44.097 41.4305ZM61.6604 85.7625L60.4454 87.3512L61.2624 87.976L62.2459 87.6749L61.6604 85.7625ZM65.0055 84.8173L64.5026 82.8815L64.5026 82.8815L65.0055 84.8173ZM66.0097 84.5625L66.4903 86.5039L68.9322 85.8994L67.7928 83.6567L66.0097 84.5625ZM26.5843 69.9362L27.7993 68.3476L25.4858 66.5783L24.6653 69.3728L26.5843 69.9362ZM28.2016 110.854L26.3335 111.569L27.8229 115.463L29.928 111.864L28.2016 110.854ZM52.0895 89.4425L52.9442 91.2506L55.9117 89.8478L53.3044 87.8538L52.0895 89.4425ZM33.0107 120.763L31.1623 119.999L30.7789 120.926L31.2935 121.788L33.0107 120.763ZM102.626 150.321L103.081 152.268L106.587 151.449L104.039 148.905L102.626 150.321ZM91.0678 132.362L92.9869 131.798L91.0678 132.362ZM95.2843 109.853L96.8716 111.07L95.2843 109.853ZM117.848 95.2549L118.491 97.1489H118.491L117.848 95.2549ZM125.13 93.1569L125.6 95.101L125.395 91.1745L125.13 93.1569ZM107.044 91.1735L107.218 89.181L107.044 91.1735ZM100.31 90.649L100.175 92.6445H100.175L100.31 90.649ZM95.6335 90.4152L95.5695 92.4142H95.5695L95.6335 90.4152ZM88.1924 90.4035L88.1321 88.4044H88.1321L88.1924 90.4035ZM84.4065 90.5826L84.277 88.5868H84.277L84.4065 90.5826ZM81.6118 90.8016L81.4284 88.8101H81.4284L81.6118 90.8016ZM75.6658 91.5327L75.9723 93.509H75.9723L75.6658 91.5327ZM73.2597 91.9389L73.6194 93.9063L73.6194 93.9063L73.2597 91.9389ZM67.2025 93.2739L67.7054 95.2097H67.7054L67.2025 93.2739ZM62.2314 94.7588L62.8756 96.6522H62.8756L62.2314 94.7588ZM151.095 98.7868L153.066 99.1215L153.471 96.7386L151.054 96.7872L151.095 98.7868ZM112.178 147.275L110.868 148.786L111.796 149.591L112.934 149.127L112.178 147.275ZM120.655 103.529L120.012 101.635H120.012L120.655 103.529ZM102.219 115.169L103.806 116.386L102.219 115.169ZM99.4514 129.901L101.37 129.337L99.4514 129.901ZM151.988 89.2752L151.476 91.2086L153.937 91.8599L153.987 89.3143L151.988 89.2752ZM147.745 65.005L149.612 64.2862L148.711 61.9473L146.63 63.3446L147.745 65.005ZM119.908 83.6994L118.793 82.039L114.295 85.0595L119.677 85.686L119.908 83.6994ZM126.43 36.8157L127.632 35.2172L125.748 33.8009L124.657 35.8894L126.43 36.8157ZM144.002 56.994L145.117 58.6544L146.642 57.6302L145.751 56.0237L144.002 56.994ZM102.784 82.0648L101.012 81.1385L99.6023 83.8358L102.637 84.0594L102.784 82.0648ZM106.263 82.338L106.097 84.3311L106.796 84.3892L107.378 83.9983L106.263 82.338ZM88.4923 23.9998L88.5074 21.9998L86.4923 21.9847V23.9998H88.4923ZM119.071 32.0328L120.843 32.9591L121.745 31.2323L120.043 30.2851L119.071 32.0328ZM88.4923 81.6544H86.4923V83.7061L88.5433 83.6538L88.4923 81.6544ZM93.1572 81.6223L93.1346 83.6222L94.3615 83.6361L94.9298 82.5486L93.1572 81.6223ZM52.1732 37.391C60.2395 31.6697 69.7306 27.8299 80.0102 26.5078L79.4999 22.5405C68.5527 23.9485 58.4451 28.0384 49.8591 34.1283L52.1732 37.391ZM49.233 36.6655L73.1357 83.7144L76.7018 81.9026L52.7992 34.8538L49.233 36.6655ZM75.2135 84.7866C76.7573 84.5566 78.3385 84.358 79.9577 84.1931L79.5524 80.2137C77.8723 80.3848 76.2297 80.591 74.624 80.8303L75.2135 84.7866ZM81.755 82.2034V24.5241H77.755V82.2034H81.755ZM31.599 62.2137C34.9501 54.8956 39.6848 48.341 45.4692 42.8855L42.7247 39.9756C36.5702 45.7801 31.5305 52.7559 27.9622 60.5483L31.599 62.2137ZM28.5656 62.9697L60.4454 87.3512L62.8754 84.1739L30.9955 59.7924L28.5656 62.9697ZM62.2459 87.6749C63.3046 87.3508 64.3918 87.0431 65.5084 86.753L64.5026 82.8815C63.3315 83.1858 62.1891 83.509 61.0749 83.8502L62.2459 87.6749ZM65.5084 86.753C65.8337 86.6685 66.161 86.5855 66.4903 86.5039L65.5291 82.6212C65.1849 82.7064 64.8428 82.7932 64.5026 82.8815L65.5084 86.753ZM67.7928 83.6567L45.88 40.5247L42.3139 42.3364L64.2266 85.4684L67.7928 83.6567ZM26 87.9989C26 81.919 26.8745 76.0469 28.5033 70.4997L24.6653 69.3728C22.9302 75.2822 22 81.5336 22 87.9989H26ZM30.0696 110.14C27.441 103.266 26 95.8032 26 87.9989H22C22 96.2992 23.5331 104.246 26.3335 111.569L30.0696 110.14ZM29.928 111.864C34.1451 104.653 41.1276 96.8364 52.9442 91.2506L51.2347 87.6343C38.6059 93.604 31.0499 102.022 26.4751 109.845L29.928 111.864ZM53.3044 87.8538L27.7993 68.3476L25.3693 71.5249L50.8745 91.0311L53.3044 87.8538ZM88 150C65.3602 150 45.5523 137.866 34.7278 119.737L31.2935 121.788C42.8098 141.076 63.8946 154 88 154V150ZM102.171 148.373C97.6213 149.437 92.8777 150 88 150V154C93.1864 154 98.2355 153.401 103.081 152.268L102.171 148.373ZM104.039 148.905C98.2971 143.176 94.6373 137.421 92.9869 131.798L89.1488 132.925C91.04 139.368 95.1457 145.682 101.213 151.737L104.039 148.905ZM92.9869 131.798C90.7617 124.218 92.2597 117.087 96.8716 111.07L93.697 108.637C88.333 115.634 86.5531 124.082 89.1488 132.925L92.9869 131.798ZM96.8716 111.07C101.418 105.139 108.888 100.406 118.491 97.1489L117.206 93.3609C107.15 96.7718 98.8856 101.868 93.697 108.637L96.8716 111.07ZM118.491 97.1489C120.736 96.3874 123.108 95.703 125.6 95.101L124.661 91.2128C122.06 91.8412 119.572 92.5584 117.206 93.3609L118.491 97.1489ZM125.395 91.1745C118.877 90.3032 112.537 89.6441 107.218 89.181L106.871 93.1659C112.14 93.6247 118.419 94.2775 124.865 95.1393L125.395 91.1745ZM107.218 89.181C104.677 88.9598 102.387 88.7848 100.445 88.6536L100.175 92.6445C102.09 92.7739 104.354 92.9469 106.871 93.1659L107.218 89.181ZM100.445 88.6536C98.8309 88.5445 97.2487 88.4659 95.6975 88.4162L95.5695 92.4142C97.0726 92.4623 98.6077 92.5386 100.175 92.6445L100.445 88.6536ZM95.6975 88.4162C93.0886 88.3327 90.5676 88.3311 88.1321 88.4044L88.2526 92.4026C90.6033 92.3318 93.0413 92.3332 95.5695 92.4142L95.6975 88.4162ZM88.1321 88.4044C86.8225 88.4439 85.5376 88.5051 84.277 88.5868L84.5359 92.5785C85.7499 92.4997 86.9886 92.4407 88.2526 92.4026L88.1321 88.4044ZM84.277 88.5868C83.3134 88.6494 82.3639 88.7239 81.4284 88.8101L81.7951 92.7932C82.6944 92.7104 83.608 92.6386 84.5359 92.5785L84.277 88.5868ZM81.4284 88.8101C79.3362 89.0027 77.3138 89.2532 75.3594 89.5563L75.9723 93.509C77.8437 93.2188 79.7839 92.9784 81.7951 92.7932L81.4284 88.8101ZM75.3594 89.5563C74.5273 89.6853 73.7076 89.8238 72.8999 89.9715L73.6194 93.9063C74.3914 93.7651 75.1756 93.6326 75.9723 93.509L75.3594 89.5563ZM72.9 89.9715C70.7483 90.3649 68.6825 90.823 66.6996 91.3382L67.7054 95.2097C69.5925 94.7194 71.5627 94.2823 73.6194 93.9063L72.9 89.9715ZM66.6996 91.3382C64.9103 91.803 63.2077 92.3141 61.5872 92.8654L62.8756 96.6522C64.4007 96.1333 66.009 95.6504 67.7054 95.2097L66.6996 91.3382ZM61.5872 92.8654C43.0258 99.1806 34.9047 110.945 31.1623 119.999L34.859 121.527C38.2461 113.332 45.5985 102.53 62.8756 96.6522L61.5872 92.8654ZM149.123 98.4521C145.498 119.806 130.949 137.45 111.422 145.423L112.934 149.127C133.717 140.641 149.206 121.865 153.066 99.1215L149.123 98.4521ZM151.054 96.7872C138.909 97.0317 128.436 98.7783 120.012 101.635L121.297 105.423C129.255 102.724 139.309 101.024 151.135 100.786L151.054 96.7872ZM120.012 101.635C110.948 104.71 104.417 109.013 100.631 113.952L103.806 116.386C106.95 112.284 112.688 108.343 121.297 105.423L120.012 101.635ZM100.631 113.952C96.9104 118.806 95.746 124.379 97.5323 130.464L101.37 129.337C99.9543 124.513 100.838 120.257 103.806 116.386L100.631 113.952ZM97.5323 130.464C99.1836 136.089 103.413 142.319 110.868 148.786L113.489 145.764C106.385 139.602 102.734 133.983 101.37 129.337L97.5323 130.464ZM150 87.9989C150 88.4122 149.996 88.8246 149.988 89.2361L153.987 89.3143C153.996 88.8768 154 88.4383 154 87.9989H150ZM145.879 65.7237C148.54 72.6343 150 80.1437 150 87.9989H154C154 79.6445 152.447 71.6482 149.612 64.2862L145.879 65.7237ZM146.63 63.3446L118.793 82.039L121.023 85.3597L148.86 66.6653L146.63 63.3446ZM119.677 85.686C130.185 86.9093 142.054 88.7156 151.476 91.2086L152.499 87.3417C142.801 84.7755 130.709 82.9433 120.139 81.7128L119.677 85.686ZM125.227 38.4141C132.185 43.6467 138.006 50.3095 142.253 57.9643L145.751 56.0237C141.23 47.8751 135.035 40.7852 127.632 35.2172L125.227 38.4141ZM124.657 35.8894L101.012 81.1385L104.557 82.991L128.202 37.7419L124.657 35.8894ZM102.637 84.0594C103.716 84.1388 104.874 84.2293 106.097 84.3311L106.429 80.3448C105.193 80.242 104.023 80.1506 102.931 80.0702L102.637 84.0594ZM107.378 83.9983L145.117 58.6544L142.887 55.3337L105.148 80.6776L107.378 83.9983ZM88.4772 25.9997C99.2252 26.0807 109.317 28.8949 118.098 33.7805L120.043 30.2851C110.691 25.0819 99.9426 22.086 88.5074 21.9998L88.4772 25.9997ZM86.4923 23.9998V81.6544H90.4923V23.9998H86.4923ZM88.5433 83.6538C90.0447 83.6155 91.5749 83.6045 93.1346 83.6222L93.1799 79.6225C91.5718 79.6042 89.9924 79.6155 88.4413 79.6551L88.5433 83.6538ZM94.9298 82.5486L120.843 32.9591L117.298 31.1065L91.3847 80.6961L94.9298 82.5486Z" fill="url(#paint0_linear_602_9090)" mask="url(#path-2-inside-1_602_9090)"/>
<defs>
<linearGradient id="paint0_linear_602_9090" x1="24" y1="88" x2="152" y2="88" gradientUnits="userSpaceOnUse">
<stop stop-color="#0085FF"/>
<stop offset="1" stop-color="#B440FC"/>
</linearGradient>
</defs>
</svg>
