<svg width="128" height="128" viewBox="0 0 128 128" fill="none" xmlns="http://www.w3.org/2000/svg">
<g clip-path="url(#clip0_617_9164)">
<path fill-rule="evenodd" clip-rule="evenodd" d="M55.7574 0.524011C45.1438 1.8887 35.3441 5.85333 27.0177 11.7587L50.9211 58.8088C52.4958 58.5741 54.1077 58.3718 55.7574 58.2037V0.524011ZM20.0984 17.4293C14.1286 23.0593 9.24108 29.8246 5.78105 37.38L37.6627 61.7629C38.7492 61.4302 39.864 61.1148 41.0078 60.8176C41.3406 60.7312 41.6753 60.6462 42.012 60.5629L20.0984 17.4293ZM2.58463 45.9351C0.902462 51.6637 0 57.7259 0 63.9988C0 72.0522 1.48743 79.7581 4.20255 86.8568C8.59836 79.3397 15.8678 71.2211 28.0918 65.4428L2.58463 45.9351ZM9.01212 96.7649C20.1829 115.472 40.6284 128 64 128C69.0326 128 73.9295 127.419 78.6274 126.32C72.7234 120.429 68.8409 114.394 67.0702 108.362C64.6597 100.15 66.2987 92.3606 71.2866 85.8535C76.1541 79.5036 84.0214 74.5891 93.8508 71.2552C96.1564 70.4732 98.5861 69.7724 101.133 69.1572C94.6503 68.2907 88.3407 67.6347 83.0465 67.1738C80.5179 66.9536 78.241 66.7796 76.3124 66.6493C74.7216 66.5419 73.163 66.4644 71.6359 66.4155C69.0673 66.3332 66.5878 66.3317 64.1947 66.4039C62.9079 66.4426 61.6461 66.5027 60.4088 66.583C59.463 66.6443 58.5315 66.7175 57.6141 66.8019C55.5624 66.9908 53.5811 67.2363 51.6681 67.533C50.8538 67.6592 50.0518 67.7948 49.262 67.9392C47.1579 68.3239 45.1399 68.7715 43.2048 69.2742C41.462 69.727 39.8065 70.224 38.2337 70.7591C20.313 76.8563 12.5764 88.1404 9.01212 96.7649ZM88.1797 123.274C108.333 115.045 123.352 96.8352 127.095 74.7871C115.11 75.0286 104.847 76.7518 96.6572 79.5296C87.8205 82.5268 81.6859 86.6488 78.221 91.1691C74.8765 95.5321 73.8525 100.446 75.4537 105.901C76.9611 111.036 80.9007 116.96 88.1797 123.274ZM127.988 65.2749C127.996 64.8505 128 64.4252 128 63.9988C128 55.8947 126.494 48.1424 123.746 41.0065L95.9102 59.6997C106.448 60.9265 118.428 62.7456 127.988 65.2749ZM120.003 32.9955C115.619 25.0939 109.612 18.2176 102.431 12.8172L78.7867 58.0651C79.8721 58.145 81.0355 58.236 82.2652 58.3383L120.003 32.9955ZM95.0725 8.03405C86.0062 2.98938 75.5862 0.0839581 64.4946 0V57.6548C66.0209 57.6159 67.5757 57.6047 69.1596 57.6227L95.0725 8.03405Z" fill="url(#paint0_linear_617_9164)"/>
</g>
<defs>
<linearGradient id="paint0_linear_617_9164" x1="0" y1="63.9998" x2="128" y2="63.9998" gradientUnits="userSpaceOnUse">
<stop stop-color="#0085FF"/>
<stop offset="1" stop-color="#B440FC"/>
</linearGradient>
<clipPath id="clip0_617_9164">
<rect width="128" height="128" fill="white"/>
</clipPath>
</defs>
</svg>
